<svg className="contact__image" width="541" height="452" viewBox="0 0 541 452" fill="none"
  xmlns="http://www.w3.org/2000/svg">
  <g opacity="0.41">
    <g opacity="0.41">
      <path opacity="0.41"
        d="M540.549 288.431C541.058 279.599 540.838 270.734 539.836 261.936C535.165 220.648 513.986 181.721 482.803 154.258C471.679 144.458 459.026 135.677 451.791 122.752C439.596 100.962 440.53 75.9446 425.398 54.4259C410.248 32.8902 388.186 16.1101 363.304 7.4822C289.101 -18.2315 185.21 23.634 194.568 113.038C194.602 113.36 194.636 113.819 194.67 114.413C195.91 132.977 181.338 148.602 162.791 149.044C94.329 150.674 35.3946 203.46 22.7756 270.326C14.6742 313.33 27.9387 360.46 59.393 390.878C82.8648 413.586 114.37 426.052 145.892 434.629C209.09 451.817 275.599 455.417 340.749 448.845C401.739 442.696 466.091 425.152 505.528 378.225C526.588 353.208 538.647 321.108 540.549 288.431Z"
        fill="#C5D9FF" />
    </g>
  </g>
  <g opacity="0.88">
    <g opacity="0.88">
      <path opacity="0.88"
        d="M484.247 292.643C484.655 285.731 484.468 278.767 483.687 271.889C480.018 239.551 463.425 209.048 439.019 187.546C430.306 179.87 420.387 172.991 414.732 162.869C405.187 145.8 405.9 126.2 394.062 109.352C382.191 92.487 364.918 79.3245 345.42 72.5818C287.284 52.4388 205.897 85.2349 213.234 155.277C213.268 155.532 213.285 155.888 213.319 156.364C214.287 170.919 202.874 183.147 188.336 183.487C134.7 184.761 88.5377 226.117 78.6531 278.495C72.301 312.175 82.6952 349.098 107.339 372.943C125.733 390.726 150.41 400.508 175.105 407.217C224.613 420.685 276.703 423.505 327.757 418.358C375.533 413.535 425.941 399.795 456.835 363.042C473.31 343.391 482.753 318.238 484.247 292.643Z"
        fill="#C5D9FF" />
    </g>
  </g>
  <path opacity="0.31"
    d="M525.396 70.5732C527.53 61.5743 521.964 52.5495 512.965 50.4159C503.966 48.2822 494.942 53.8476 492.808 62.8466C490.674 71.8455 496.24 80.8703 505.239 83.004C514.238 85.1376 523.262 79.5722 525.396 70.5732Z"
    fill="#C5D9FF" />
  <path opacity="0.31"
    d="M155.077 61.0048C162.658 53.4237 162.658 41.1324 155.077 33.5514C147.496 25.9703 135.205 25.9703 127.624 33.5514C120.043 41.1324 120.043 53.4237 127.624 61.0048C135.205 68.5858 147.496 68.5858 155.077 61.0048Z"
    fill="#C5D9FF" />
  <path opacity="0.31"
    d="M25.0683 445.311C38.9132 445.311 50.1367 434.088 50.1367 420.243C50.1367 406.398 38.9132 395.175 25.0683 395.175C11.2235 395.175 0 406.398 0 420.243C0 434.088 11.2235 445.311 25.0683 445.311Z"
    fill="#C5D9FF" />
  <path
    d="M222.948 222.381C272.034 222.381 311.826 182.589 311.826 133.504C311.826 84.4181 272.034 44.6265 222.948 44.6265C173.863 44.6265 134.071 84.4181 134.071 133.504C134.071 182.589 173.863 222.381 222.948 222.381Z"
    fill="#AF9CDA" />
  <path
    d="M284.651 197.516C284.43 197.516 284.21 197.432 284.057 197.262C283.717 196.922 283.717 196.395 284.057 196.056C300.684 179.428 309.838 157.315 309.838 133.81C309.838 110.304 300.684 88.1906 284.057 71.5633C267.429 54.936 245.316 45.7816 221.81 45.7816C198.305 45.7816 176.191 54.936 159.564 71.5633C159.224 71.903 158.698 71.903 158.358 71.5633C158.019 71.2236 158.019 70.6971 158.358 70.3575C175.308 53.4074 197.846 44.0833 221.81 44.0833C245.775 44.0833 268.313 53.4244 285.263 70.3575C302.213 87.3075 311.537 109.845 311.537 133.81C311.537 157.774 302.196 180.312 285.263 197.262C285.093 197.432 284.872 197.516 284.651 197.516Z"
    fill="#243762" />
  <path
    d="M222.948 201.134C260.3 201.134 290.579 170.855 290.579 133.504C290.579 96.1531 260.3 65.874 222.948 65.874C185.597 65.874 155.318 96.1531 155.318 133.504C155.318 170.855 185.597 201.134 222.948 201.134Z"
    fill="white" />
  <path
    d="M222.948 201.983C185.193 201.983 154.469 171.259 154.469 133.504C154.469 95.7487 185.193 65.0247 222.948 65.0247C223.424 65.0247 223.798 65.3983 223.798 65.8739C223.798 66.3494 223.424 66.7231 222.948 66.7231C186.127 66.7231 156.168 96.6828 156.168 133.504C156.168 170.325 186.127 200.285 222.948 200.285C223.424 200.285 223.798 200.659 223.798 201.134C223.798 201.61 223.407 201.983 222.948 201.983Z"
    fill="#243762" />
  <path
    d="M240.459 146.428H222.065C218.295 146.428 215.221 143.354 215.221 139.584V114.074C215.221 110.796 217.887 108.13 221.165 108.13C224.443 108.13 227.11 110.796 227.11 114.074V134.54H240.459C243.737 134.54 246.403 137.206 246.403 140.484C246.403 143.762 243.754 146.428 240.459 146.428Z"
    fill="#243762" />
  <path
    d="M84.954 164.38L180.693 260.118C199.426 278.852 229.793 278.852 248.51 260.118L259.957 248.671C264.271 244.357 264.271 237.343 259.957 233.012L220.894 193.949C216.58 189.635 209.565 189.635 205.234 193.949L185.703 213.48C184.174 215.009 181.695 215.009 180.166 213.48L132.781 166.095C131.269 164.584 131.269 162.138 132.781 160.626L152.041 141.366C156.355 137.053 156.355 130.038 152.041 125.707L111.941 85.6081C107.679 81.3451 100.766 81.2772 96.4351 85.4722L85.5654 95.9683C66.2716 114.6 65.9998 145.426 84.954 164.38Z"
    fill="#243762" />
  <path
    d="M87.9602 97.9045L141.765 151.71L143.617 149.858L152.092 141.383C156.406 137.069 156.406 130.055 152.092 125.724L111.942 85.6081C107.679 81.3451 100.766 81.2772 96.4352 85.4722L85.5654 95.9683L87.9602 97.9045Z"
    fill="#ECF1F7" />
  <path
    d="M141.749 152.899L87.3828 98.5328L84.2748 96.0362L95.8409 84.8607C100.477 80.377 107.984 80.4449 112.536 85.0136L152.669 125.147C157.323 129.8 157.323 137.358 152.669 141.995L141.749 152.899ZM86.8394 95.9173L88.5547 97.31L141.749 150.504L151.463 140.789C153.4 138.853 154.453 136.288 154.453 133.571C154.453 130.836 153.383 128.272 151.463 126.353L111.33 86.2025C107.407 82.2792 100.987 82.2282 97.0128 86.0836L86.8394 95.9173Z"
    fill="#243762" />
  <path
    d="M197.388 205.498L251.193 259.303L253.044 257.452L261.519 248.977C265.833 244.663 265.833 237.648 261.519 233.317L221.386 193.184C217.123 188.921 210.211 188.853 205.88 193.048L195.01 203.544L197.388 205.498Z"
    fill="#ECF1F7" />
  <path
    d="M251.193 260.492L196.827 206.127L193.719 203.63L205.285 192.454C209.939 187.971 217.429 188.039 221.981 192.607L262.114 232.74C264.373 234.999 265.595 237.989 265.595 241.165C265.595 244.341 264.356 247.347 262.114 249.589L251.193 260.492ZM196.267 203.511L197.982 204.904L251.176 258.098L260.891 248.383C262.827 246.447 263.88 243.882 263.88 241.165C263.88 238.43 262.81 235.866 260.891 233.946L220.758 193.813C216.834 189.907 210.414 189.839 206.44 193.694L196.267 203.511Z"
    fill="#243762" />
  <path
    d="M124.849 125.181C124.628 125.181 124.408 125.096 124.255 124.926L91.4757 92.1474C91.136 91.8077 91.136 91.2812 91.4757 90.9415C91.8154 90.6018 92.3419 90.6018 92.6816 90.9415L125.461 123.721C125.8 124.06 125.8 124.587 125.461 124.926C125.291 125.096 125.07 125.181 124.849 125.181Z"
    fill="#243762" />
  <path
    d="M255.235 255.567C255.014 255.567 254.793 255.482 254.641 255.312L221.862 222.533C221.522 222.193 221.522 221.667 221.862 221.327C222.201 220.988 222.728 220.988 223.067 221.327L255.846 254.106C256.186 254.446 256.186 254.973 255.846 255.312C255.677 255.499 255.456 255.567 255.235 255.567Z"
    fill="#243762" />
  <path
    d="M399.089 423.148L273.578 404.585C259.379 402.479 249.579 389.282 251.685 375.084L296.693 70.7651C298.799 56.5665 311.995 46.7667 326.194 48.8727L451.706 67.4362C465.904 69.5422 475.704 82.7388 473.598 96.9374L428.59 401.256C426.484 415.438 413.271 425.238 399.089 423.148Z"
    fill="#243762" />
  <path d="M306.489 77.2886L263.987 364.662L419.812 387.708L462.314 100.335L306.489 77.2886Z" fill="#ECF1F7" />
  <path d="M306.489 77.2828L303.298 98.8547L459.123 121.901L462.314 100.329L306.489 77.2828Z" fill="#AF9CDA" />
  <path
    d="M339.271 404.194C338.779 404.194 338.286 404.16 337.777 404.075C335.093 403.685 332.716 402.258 331.102 400.084C329.489 397.893 328.809 395.227 329.2 392.526C329.591 389.843 331.017 387.465 333.191 385.851C335.365 384.238 338.066 383.559 340.732 383.966C343.416 384.357 345.793 385.784 347.407 387.957C349.02 390.131 349.7 392.815 349.309 395.515C348.579 400.56 344.231 404.194 339.271 404.194ZM339.254 385.546C337.454 385.546 335.705 386.123 334.227 387.21C332.41 388.552 331.221 390.539 330.898 392.781C330.559 395.023 331.119 397.248 332.478 399.065C333.82 400.882 335.807 402.071 338.049 402.394C342.668 403.073 346.982 399.88 347.662 395.244C347.984 393.002 347.424 390.777 346.082 388.96C344.74 387.142 342.753 385.953 340.511 385.631C340.087 385.58 339.662 385.546 339.254 385.546Z"
    fill="#ECF1F7" />
  <path
    d="M361.792 74.5353C361.639 74.5353 361.47 74.5183 361.317 74.5013C360.451 74.3654 359.686 73.9238 359.177 73.2105C358.65 72.5142 358.446 71.648 358.565 70.7818C358.684 69.9156 359.143 69.1513 359.856 68.6418C360.552 68.1153 361.419 67.8945 362.285 68.0304C363.151 68.1493 363.915 68.6078 364.425 69.3212C364.951 70.0175 365.155 70.8837 365.036 71.7499C364.781 73.3634 363.389 74.5353 361.792 74.5353ZM361.792 69.6778C361.453 69.6778 361.13 69.7797 360.858 69.9835C360.518 70.2383 360.298 70.595 360.247 71.0196C360.179 71.4272 360.281 71.8518 360.535 72.1915C360.79 72.5311 361.147 72.7519 361.571 72.8029C361.996 72.8708 362.404 72.7519 362.743 72.5142C363.083 72.2594 363.304 71.9027 363.355 71.4781C363.423 71.0535 363.304 70.6459 363.066 70.3062C362.811 69.9666 362.455 69.7458 362.03 69.6948C361.945 69.6948 361.86 69.6778 361.792 69.6778Z"
    fill="#ECF1F7" />
  <path
    d="M412.404 82.0079C412.235 82.0079 412.082 81.9909 411.912 81.9739L372.152 76.0975C371.286 75.9616 370.522 75.52 370.012 74.8067C369.486 74.1104 369.282 73.2442 369.401 72.378C369.537 71.5118 369.978 70.7475 370.692 70.238C371.388 69.7115 372.254 69.5077 373.121 69.6266L412.88 75.5031C413.746 75.6389 414.51 76.0805 415.02 76.7938C415.546 77.4902 415.75 78.3564 415.631 79.2225C415.496 80.0887 415.054 80.853 414.341 81.3625C413.78 81.7871 413.101 82.0079 412.404 82.0079ZM372.645 71.291C371.881 71.291 371.201 71.8515 371.082 72.6328C371.015 73.0404 371.116 73.465 371.371 73.8047C371.626 74.1443 371.983 74.3651 372.407 74.4161L412.167 80.2925C413.016 80.4284 413.831 79.834 413.95 78.9678C414.018 78.5602 413.916 78.1356 413.661 77.7959C413.406 77.4562 413.05 77.2354 412.625 77.1845L372.866 71.308C372.798 71.291 372.713 71.291 372.645 71.291Z"
    fill="#ECF1F7" />
  <path
    d="M420.455 299.777L311.758 283.693C309.991 283.438 308.344 284.661 308.072 286.427L303.894 314.621C303.639 316.387 304.862 318.034 306.628 318.306L399.565 332.046L409.144 345.26L410.842 333.728L415.326 334.39C417.092 334.645 418.74 333.422 419.011 331.655L423.189 303.462C423.461 301.679 422.238 300.031 420.455 299.777Z"
    fill="#C5D9FF" />
  <path
    d="M399.582 332.895C399.548 332.895 399.497 332.895 399.463 332.878L306.527 319.138C305.44 318.985 304.489 318.408 303.843 317.525C303.198 316.641 302.926 315.571 303.079 314.484L307.257 286.291C307.58 284.066 309.669 282.487 311.894 282.843L337.013 286.563C337.471 286.631 337.794 287.055 337.726 287.531C337.658 287.989 337.217 288.312 336.758 288.244L311.639 284.525C310.331 284.338 309.125 285.238 308.921 286.546L304.743 314.739C304.658 315.368 304.811 315.996 305.185 316.506C305.559 317.015 306.119 317.355 306.747 317.44L399.684 331.18C400.142 331.248 400.465 331.672 400.397 332.148C400.346 332.589 399.989 332.895 399.582 332.895Z"
    fill="#243762" />
  <path
    d="M437.745 182.927L329.047 166.843C327.281 166.588 325.633 167.811 325.362 169.577L321.184 197.771C320.929 199.537 322.152 201.184 323.918 201.456L416.854 215.196L426.433 228.41L428.132 216.878L432.615 217.54C434.382 217.795 436.029 216.572 436.301 214.806L440.479 186.612C440.734 184.829 439.511 183.181 437.745 182.927Z"
    fill="#C5D9FF" />
  <path
    d="M426.977 230.584L416.396 215.978L323.816 202.289C321.591 201.966 320.046 199.877 320.368 197.652C320.436 197.194 320.861 196.888 321.336 196.939C321.795 197.007 322.118 197.431 322.05 197.907C321.948 198.535 322.118 199.164 322.491 199.673C322.865 200.183 323.425 200.522 324.054 200.607L417.347 214.398L425.907 226.202L427.435 215.893L432.768 216.674C433.397 216.759 434.025 216.606 434.535 216.233C435.044 215.859 435.384 215.298 435.469 214.67L438.237 195.903C438.305 195.444 438.73 195.122 439.205 195.189C439.664 195.257 439.986 195.682 439.918 196.158L437.15 214.925C436.997 216.012 436.42 216.963 435.537 217.608C434.653 218.254 433.583 218.525 432.496 218.373L428.845 217.829L426.977 230.584Z"
    fill="#243762" />
  <path
    d="M300.157 219.255L408.855 235.339C410.621 235.594 411.844 237.241 411.589 239.025L407.411 267.218C407.156 268.984 405.509 270.207 403.726 269.952L310.806 256.195L297.814 266.063L299.512 254.531L295.028 253.869C293.262 253.614 292.039 251.966 292.294 250.183L296.472 221.99C296.744 220.223 298.391 219 300.157 219.255Z"
    fill="#AF9CDA" />
  <path
    d="M404.218 270.836C404.015 270.836 403.811 270.819 403.607 270.785L345.59 262.208C345.131 262.14 344.808 261.715 344.876 261.24C344.944 260.781 345.369 260.459 345.844 260.527L403.862 269.103C404.49 269.188 405.118 269.035 405.628 268.662C406.138 268.288 406.477 267.728 406.562 267.099L410.74 238.906C410.927 237.598 410.027 236.392 408.719 236.188C408.261 236.121 407.938 235.696 408.006 235.22C408.074 234.762 408.498 234.439 408.974 234.507C411.199 234.83 412.744 236.919 412.422 239.144L408.244 267.337C408.091 268.424 407.513 269.375 406.63 270.021C405.934 270.547 405.085 270.836 404.218 270.836Z"
    fill="#243762" />
  <path d="M267.891 338.225L263.98 364.669L419.805 387.715L423.716 361.271L267.891 338.225Z" fill="white" />
  <path
    d="M290.901 354.889C290.137 360.069 285.313 363.636 280.133 362.871C274.953 362.107 271.387 357.284 272.151 352.104C272.915 346.924 277.739 343.357 282.919 344.121C288.099 344.885 291.665 349.709 290.901 354.889Z"
    fill="#C5D9FF" />
  <path opacity="0.33"
    d="M405.832 380.57C405.424 380.57 405 380.536 404.592 380.485L303.605 365.556C301.38 365.233 299.393 364.044 298.052 362.227C296.71 360.41 296.149 358.185 296.472 355.96C297.151 351.357 301.465 348.147 306.068 348.844L407.055 363.773C411.657 364.452 414.867 368.749 414.171 373.369C413.56 377.547 409.942 380.57 405.832 380.57ZM404.83 378.803C408.515 379.347 411.946 376.799 412.507 373.114C412.778 371.331 412.32 369.547 411.25 368.104C410.18 366.66 408.6 365.709 406.817 365.454L305.83 350.508C302.145 349.965 298.714 352.512 298.171 356.198C297.899 357.981 298.357 359.764 299.427 361.208C300.497 362.652 302.077 363.603 303.86 363.858L404.83 378.803Z"
    fill="#AF9CDA" />
  <path
    d="M316.19 92.7756C316.038 92.7756 315.868 92.7586 315.698 92.7416C313.881 92.4699 312.624 90.7885 312.896 88.9712C313.031 88.088 313.49 87.3237 314.203 86.7802C314.917 86.2537 315.8 86.0329 316.666 86.1688C318.483 86.4406 319.74 88.122 319.468 89.9393C319.231 91.5867 317.821 92.7756 316.19 92.7756ZM316.19 87.8163C315.851 87.8163 315.511 87.9182 315.222 88.139C314.866 88.3937 314.645 88.7844 314.577 89.209C314.509 89.6335 314.628 90.0751 314.883 90.4148C315.137 90.7715 315.528 90.9923 315.953 91.0602C316.836 91.1961 317.668 90.5847 317.804 89.6845C317.872 89.2599 317.753 88.8183 317.498 88.4786C317.243 88.122 316.853 87.9012 316.428 87.8332C316.343 87.8332 316.275 87.8163 316.19 87.8163Z"
    fill="white" />
  <path
    d="M325.396 94.1346C325.226 94.1346 325.073 94.1176 324.903 94.1006C323.086 93.8288 321.829 92.1474 322.101 90.3301C322.373 88.5129 324.071 87.273 325.871 87.5278C326.754 87.6637 327.519 88.1222 328.062 88.8356C328.589 89.5489 328.809 90.432 328.674 91.2982C328.538 92.1814 328.079 92.9457 327.366 93.4892C326.788 93.9138 326.092 94.1346 325.396 94.1346ZM325.379 89.1752C324.58 89.1752 323.884 89.7527 323.765 90.5679C323.697 90.9925 323.816 91.4341 324.071 91.7738C324.326 92.1304 324.716 92.3512 325.141 92.4192C325.566 92.4871 326.007 92.3682 326.347 92.1135C326.703 91.8587 326.924 91.4681 326.992 91.0435C327.06 90.6189 326.941 90.1773 326.686 89.8376C326.432 89.4809 326.041 89.2602 325.616 89.1922C325.549 89.1922 325.464 89.1752 325.379 89.1752Z"
    fill="white" />
  <path
    d="M334.397 95.4594C334.244 95.4594 334.075 95.4424 333.905 95.4254C332.087 95.1537 330.831 93.4553 331.102 91.655C331.374 89.8377 333.073 88.5809 334.873 88.8526C336.69 89.1244 337.947 90.8228 337.675 92.6231C337.454 94.2705 336.028 95.4594 334.397 95.4594ZM334.397 90.517C334.058 90.517 333.718 90.6359 333.429 90.8397C333.073 91.0945 332.852 91.4851 332.784 91.9097C332.716 92.3343 332.835 92.7759 333.089 93.1156C333.344 93.4723 333.735 93.693 334.159 93.761C335.043 93.8799 335.875 93.2684 336.011 92.3853C336.147 91.5021 335.518 90.6699 334.635 90.534C334.567 90.517 334.482 90.517 334.397 90.517Z"
    fill="white" />
  <path
    d="M461.25 123.042C461.216 123.042 461.165 123.042 461.132 123.025L316.887 101.693C316.428 101.625 316.105 101.2 316.173 100.725C316.241 100.266 316.666 99.9435 317.141 100.011L461.386 121.343C461.845 121.411 462.168 121.836 462.1 122.311C462.032 122.736 461.658 123.042 461.25 123.042Z"
    fill="#243762" />
  <path
    d="M401.11 306.264C401.076 306.264 401.025 306.264 400.991 306.247L324.037 294.868C323.578 294.8 323.255 294.375 323.323 293.899C323.391 293.441 323.816 293.101 324.291 293.186L401.246 304.565C401.704 304.633 402.027 305.058 401.959 305.534C401.891 305.958 401.535 306.264 401.11 306.264Z"
    fill="white" />
  <path
    d="M355.559 308.914C355.525 308.914 355.474 308.914 355.44 308.897L322.678 304.056C322.22 303.988 321.897 303.564 321.965 303.088C322.033 302.63 322.458 302.307 322.933 302.375L355.695 307.215C356.154 307.283 356.477 307.708 356.409 308.184C356.324 308.608 355.967 308.914 355.559 308.914Z"
    fill="white" />
  <path
    d="M344.52 316.064C344.486 316.064 344.435 316.064 344.401 316.047L321.404 312.65C320.946 312.582 320.623 312.158 320.691 311.682C320.759 311.224 321.201 310.901 321.659 310.969L344.656 314.366C345.114 314.434 345.437 314.858 345.369 315.334C345.301 315.758 344.927 316.064 344.52 316.064Z"
    fill="white" />
  <path
    d="M399.751 315.453C399.717 315.453 399.667 315.453 399.633 315.436L365.784 310.426C365.325 310.358 365.002 309.933 365.07 309.457C365.138 308.999 365.563 308.676 366.038 308.744L399.887 313.754C400.346 313.822 400.669 314.247 400.601 314.723C400.533 315.147 400.176 315.453 399.751 315.453Z"
    fill="white" />
  <path
    d="M391.718 242.405C391.684 242.405 391.633 242.405 391.599 242.388L314.645 231.009C314.186 230.941 313.864 230.517 313.932 230.041C313.999 229.583 314.424 229.243 314.9 229.328L391.854 240.707C392.313 240.775 392.635 241.2 392.567 241.675C392.499 242.1 392.126 242.405 391.718 242.405Z"
    fill="white" />
  <path
    d="M346.15 245.055C346.116 245.055 346.065 245.055 346.031 245.038L313.269 240.197C312.811 240.129 312.488 239.705 312.556 239.229C312.624 238.771 313.048 238.448 313.524 238.516L346.286 243.356C346.745 243.424 347.067 243.849 346.999 244.324C346.931 244.749 346.575 245.055 346.15 245.055Z"
    fill="white" />
  <path
    d="M380.186 258.863C380.135 258.863 380.101 258.863 380.05 258.846L313.626 248.536C313.167 248.468 312.845 248.027 312.912 247.568C312.98 247.11 313.422 246.787 313.881 246.855L380.305 257.164C380.763 257.232 381.086 257.674 381.018 258.132C380.967 258.557 380.611 258.863 380.186 258.863Z"
    fill="white" />
  <path
    d="M390.359 251.593C390.325 251.593 390.274 251.593 390.24 251.576L356.391 246.566C355.933 246.498 355.61 246.074 355.678 245.598C355.746 245.14 356.17 244.817 356.646 244.885L390.495 249.895C390.954 249.963 391.276 250.388 391.208 250.863C391.14 251.288 390.784 251.593 390.359 251.593Z"
    fill="white" />
  <path
    d="M314.118 113.242L422.816 129.326C424.582 129.58 425.805 131.228 425.55 133.011L421.372 161.205C421.117 162.971 419.47 164.194 417.686 163.939L324.75 150.199L311.757 160.067L313.456 148.534L308.972 147.872C307.206 147.617 305.983 145.97 306.238 144.187L310.416 115.993C310.704 114.21 312.352 112.987 314.118 113.242Z"
    fill="#AF9CDA" />
  <path
    d="M421.372 162.054C421.338 162.054 421.287 162.054 421.253 162.037C420.795 161.969 420.472 161.544 420.54 161.069L424.718 132.876C424.82 132.247 424.65 131.619 424.276 131.109C423.903 130.6 423.342 130.26 422.714 130.175L355.22 120.189C354.761 120.121 354.438 119.696 354.506 119.22C354.574 118.762 355.016 118.439 355.474 118.507L422.969 128.494C424.056 128.647 425.007 129.224 425.652 130.107C426.297 130.99 426.569 132.06 426.416 133.147L422.238 161.341C422.153 161.748 421.797 162.054 421.372 162.054Z"
    fill="#243762" />
  <path
    d="M405.679 136.391C405.645 136.391 405.594 136.391 405.56 136.374L328.606 124.995C328.147 124.927 327.825 124.502 327.892 124.027C327.96 123.568 328.385 123.245 328.861 123.313L405.815 134.693C406.273 134.76 406.596 135.185 406.528 135.661C406.46 136.085 406.087 136.391 405.679 136.391Z"
    fill="white" />
  <path
    d="M360.111 139.041C360.077 139.041 360.026 139.041 359.992 139.024L327.23 134.183C326.771 134.115 326.449 133.691 326.517 133.215C326.585 132.756 327.009 132.434 327.485 132.502L360.247 137.342C360.705 137.41 361.028 137.835 360.96 138.31C360.892 138.735 360.536 139.041 360.111 139.041Z"
    fill="white" />
  <path
    d="M394.147 152.848C394.096 152.848 394.062 152.848 394.011 152.831L327.587 142.522C327.128 142.454 326.805 142.012 326.873 141.554C326.941 141.095 327.383 140.773 327.841 140.841L394.283 151.167C394.741 151.235 395.064 151.676 394.996 152.135C394.928 152.56 394.571 152.848 394.147 152.848Z"
    fill="white" />
  <path
    d="M404.32 145.58C404.286 145.58 404.235 145.58 404.201 145.563L370.352 140.552C369.894 140.484 369.571 140.06 369.639 139.584C369.707 139.126 370.131 138.803 370.607 138.871L404.456 143.881C404.914 143.949 405.237 144.374 405.169 144.849C405.101 145.274 404.728 145.58 404.32 145.58Z"
    fill="white" />
  <path
    d="M418.468 190.502C418.434 190.502 418.383 190.502 418.349 190.485L341.394 179.105C340.936 179.038 340.613 178.613 340.681 178.137C340.749 177.679 341.174 177.356 341.649 177.424L418.603 188.803C419.062 188.871 419.385 189.296 419.317 189.771C419.249 190.196 418.875 190.502 418.468 190.502Z"
    fill="white" />
  <path
    d="M372.9 193.134C372.866 193.134 372.815 193.134 372.781 193.117L340.019 188.277C339.56 188.209 339.238 187.784 339.306 187.309C339.374 186.85 339.815 186.527 340.274 186.595L373.036 191.436C373.494 191.504 373.817 191.928 373.749 192.404C373.681 192.845 373.325 193.134 372.9 193.134Z"
    fill="white" />
  <path
    d="M361.86 200.285C361.826 200.285 361.775 200.285 361.741 200.268L338.745 196.871C338.286 196.803 337.964 196.378 338.032 195.903C338.1 195.444 338.524 195.122 339 195.189L361.996 198.586C362.455 198.654 362.777 199.079 362.709 199.554C362.642 199.996 362.285 200.285 361.86 200.285Z"
    fill="white" />
  <path
    d="M417.109 199.673C417.075 199.673 417.024 199.673 416.99 199.656L383.141 194.646C382.682 194.578 382.36 194.153 382.428 193.678C382.496 193.219 382.92 192.897 383.396 192.965L417.245 197.975C417.703 198.043 418.026 198.467 417.958 198.943C417.89 199.385 417.534 199.673 417.109 199.673Z"
    fill="white" />
  <path
    d="M261.978 397.044L87.6201 416.678C84.2743 417.051 81.2512 414.64 80.8775 411.294L68.2924 299.607C68.2754 299.438 68.3943 299.268 68.5811 299.251L254.386 278.309C254.556 278.292 254.725 278.411 254.742 278.598L267.328 390.336C267.701 393.665 265.306 396.671 261.978 397.044Z"
    fill="#F7A9B4" />
  <path
    d="M86.9409 417.578C83.4592 417.578 80.436 414.945 80.0454 411.395L67.4603 299.709C67.3923 299.064 67.8509 298.486 68.4963 298.418L254.301 277.477C254.946 277.409 255.524 277.868 255.592 278.513L268.177 390.25C268.381 392.085 267.871 393.885 266.716 395.329C265.561 396.772 263.914 397.672 262.08 397.893L87.7222 417.527C87.4504 417.561 87.1957 417.578 86.9409 417.578ZM69.1926 300.032L81.7268 411.209C82.0495 414.079 84.6481 416.168 87.5353 415.845L261.876 396.195L261.978 397.044L261.876 396.195C263.251 396.042 264.491 395.346 265.374 394.259C266.241 393.172 266.631 391.813 266.478 390.42L253.944 279.209L69.1926 300.032Z"
    fill="#243762" />
  <path opacity="0.29"
    d="M253.808 397.044L96.1631 416.695C92.8172 417.068 145.009 350.118 144.635 346.772L68.2924 299.607C68.2754 299.438 68.3943 299.268 68.5811 299.251L254.386 278.309C254.556 278.292 254.725 278.411 254.742 278.598L191.188 341.507C191.545 344.836 257.137 396.671 253.808 397.044Z"
    fill="#243762" />
  <path
    d="M68.5811 299.25L145.417 223.264C150.002 218.712 157.102 217.914 162.587 221.311L253.91 278.02C254.063 278.122 254.012 278.36 253.825 278.377L68.2584 299.284"
    fill="#F7A9B4" />
  <path
    d="M68.3605 300.133L68.2246 298.876L67.9868 298.639L68.1736 298.452V298.435H68.2076L144.839 222.652C149.714 217.812 157.204 216.963 163.046 220.58L254.369 277.307C254.743 277.545 254.929 277.986 254.844 278.411C254.743 278.835 254.386 279.175 253.944 279.226L68.3605 300.133ZM155.233 220.054C151.871 220.054 148.542 221.345 146.011 223.858L70.925 298.129L251.855 277.748L162.129 222.024C159.989 220.716 157.594 220.054 155.233 220.054Z"
    fill="#243762" />
  <path opacity="0.29"
    d="M68.5811 299.25L145.417 223.264C150.002 218.712 157.102 217.914 162.587 221.311L253.91 278.02C254.063 278.122 254.012 278.36 253.825 278.377L68.2584 299.284"
    fill="#243762" />
  <path
    d="M153.909 335.035L96.1464 415.386L253.792 397.621L179.606 332.131C171.878 325.32 159.938 326.662 153.909 335.035Z"
    fill="#F7A9B4" />
  <path
    d="M94.3459 416.456L153.212 334.543L153.909 335.035L153.212 334.543C156.219 330.347 160.889 327.613 166.018 327.036C171.147 326.458 176.311 328.089 180.166 331.502L255.796 398.266L94.3459 416.456ZM168.056 328.632C167.445 328.632 166.817 328.666 166.205 328.734C161.552 329.261 157.322 331.74 154.588 335.545L97.9465 414.35L251.804 397.01L179.045 332.793C176.005 330.093 172.082 328.632 168.056 328.632Z"
    fill="#243762" />
  <path
    d="M77.9562 244.205L199.392 230.516C207.357 229.616 214.439 234.49 215.221 241.403L223.033 310.68L189.269 341.727L144.652 346.754L100.545 319.189L92.987 252.069L77.9562 244.205Z"
    fill="white" />
  <path
    d="M144.432 347.637L99.7467 319.699L92.1889 252.629L80.6228 243.067L199.29 229.701C203.349 229.242 207.306 230.193 210.465 232.367C213.658 234.558 215.645 237.751 216.053 241.352L223.9 311.054L189.609 342.576L144.432 347.637ZM101.343 318.68L144.822 345.871L188.879 340.912L222.133 310.358L214.372 241.505C214.015 238.414 212.3 235.645 209.514 233.743C206.695 231.807 203.128 230.958 199.494 231.365L80.8096 244.732L93.7854 251.508L101.343 318.68Z"
    fill="#243762" />
  <path opacity="0.29"
    d="M153.909 328.105L96.1464 415.403L253.792 397.638L179.606 325.218C171.878 318.374 159.938 319.732 153.909 328.105Z"
    fill="#243762" />
  <path
    d="M153.909 335.035L96.1464 415.386L253.792 397.621L179.606 332.131C171.878 325.32 159.938 326.662 153.909 335.035Z"
    fill="#F7A9B4" />
  <path
    d="M94.3459 416.456L153.212 334.543L153.909 335.035L153.212 334.543C156.219 330.347 160.889 327.613 166.018 327.036C171.147 326.458 176.311 328.089 180.166 331.502L255.796 398.266L94.3459 416.456ZM168.056 328.632C167.445 328.632 166.817 328.666 166.205 328.734C161.552 329.261 157.322 331.74 154.588 335.545L97.9465 414.35L251.804 397.01L179.045 332.793C176.005 330.093 172.082 328.632 168.056 328.632Z"
    fill="#243762" />
  <path opacity="0.35"
    d="M159.496 352.835L117.087 411.854L232.867 398.81L178.383 350.712C172.693 345.685 163.929 346.67 159.496 352.835Z"
    fill="#ECF1F7" />
  <path d="M69.1074 298.699L68.2091 300.141L144.187 347.489L145.085 346.048L69.1074 298.699Z" fill="#243762" />
  <path d="M254.136 277.84L190.611 340.927L191.807 342.132L255.333 279.045L254.136 277.84Z" fill="#243762" />
  <path
    d="M96.3498 282.997L75.1538 285.392L71.74 255.16C71.1116 249.572 75.1368 244.528 80.7076 243.9L81.6757 243.798C87.2634 243.169 92.3076 247.195 92.936 252.765L96.3498 282.997Z"
    fill="#ECF1F7" />
  <path
    d="M74.4069 286.325L70.9082 255.245C70.5855 252.323 71.4007 249.436 73.2519 247.126C75.0862 244.817 77.7187 243.373 80.64 243.05L81.6081 242.948C84.5463 242.626 87.4166 243.441 89.7094 245.292C92.0192 247.126 93.4629 249.759 93.7856 252.68L97.2843 283.761L74.4069 286.325ZM82.8479 244.579C82.4912 244.579 82.1346 244.596 81.7779 244.647L80.8098 244.749C78.3302 245.02 76.1222 246.26 74.5597 248.196C73.0142 250.15 72.3008 252.578 72.5896 255.058L75.9014 284.457L95.399 282.266L92.0872 252.867C91.8154 250.387 90.5756 248.179 88.6394 246.617C86.975 245.275 84.9539 244.579 82.8479 244.579Z"
    fill="#243762" />
  <path
    d="M110.735 267.252C110.311 267.252 109.937 266.93 109.886 266.505C109.835 266.046 110.175 265.622 110.634 265.571L198.628 255.652C199.103 255.601 199.511 255.941 199.562 256.4C199.613 256.858 199.273 257.283 198.814 257.334L110.82 267.252C110.803 267.252 110.769 267.252 110.735 267.252Z"
    fill="#243762" />
  <path
    d="M114.115 297.161C113.691 297.161 113.317 296.838 113.266 296.413C113.215 295.955 113.555 295.53 114.013 295.479L201.99 285.561C202.449 285.51 202.873 285.849 202.924 286.308C202.975 286.767 202.636 287.191 202.177 287.242L114.2 297.161C114.183 297.161 114.149 297.161 114.115 297.161Z"
    fill="#243762" />
  <path
    d="M112.4 282.046C111.975 282.046 111.602 281.723 111.551 281.298C111.5 280.84 111.839 280.415 112.298 280.364L150.325 276.084C150.784 276.033 151.208 276.373 151.259 276.831C151.31 277.29 150.971 277.715 150.512 277.766L112.485 282.046C112.468 282.046 112.434 282.046 112.4 282.046Z"
    fill="#243762" />
  <path
    d="M160.38 276.627C159.955 276.627 159.581 276.304 159.53 275.88C159.479 275.421 159.819 274.997 160.278 274.946L200.292 270.445C200.767 270.394 201.175 270.734 201.226 271.192C201.277 271.651 200.937 272.075 200.479 272.126L160.464 276.627C160.447 276.627 160.413 276.627 160.38 276.627Z"
    fill="#243762" />
  <path
    d="M116.017 314.128C115.593 314.128 115.219 313.805 115.168 313.381C115.117 312.922 115.457 312.497 115.915 312.446L153.942 308.166C154.401 308.115 154.826 308.455 154.877 308.914C154.928 309.372 154.588 309.797 154.129 309.848L116.102 314.128C116.085 314.128 116.051 314.128 116.017 314.128Z"
    fill="#243762" />
</svg>